<svg width="256" height="256" fill="none" xmlns="http://www.w3.org/2000/svg">
  <style> @media (prefers-color-scheme: dark) { .bg { fill: #021810 } .fg { fill: #0c8 } } </style>
  <rect class="bg" fill="#0c8" width="256" height="256" />
  <path class="fg" fill="#fff" d="M25.0801 179.355V107.239H99.3913V86.6337H25.0801V21.0731H103.571V0H0V179.355H25.0801Z M115.523 132.286C126.377 132.286 134.691 128.577 140.465 120.694C146.839 110.521 149.906 98.6106 149.241 86.6111C138.203 90.176 126.33 90.176 115.292 86.6111C109.75 79.1917 101.436 75.0183 90.8126 75.0183C79.7274 75.0183 71.4136 79.1917 65.4091 86.6111C76.4943 83.3651 88.5032 83.3651 99.3574 86.6111C99.3574 101.913 102.36 113.274 108.133 121.157C113.445 129.04 121.99 132.75 132.613 132.75L115.523 132.286ZM115.523 122.549C109.288 122.549 103.976 119.303 100.743 113.274C127.689 120.01 145.399 145.865 142.019 173.537C138.64 201.208 115.233 222.003 87.4639 222.003C59.6951 222.003 36.2881 201.208 32.9086 173.537C29.529 145.865 47.2386 120.01 74.1848 113.274C74.1848 89.857 81.1131 78.2643 94.7386 78.2643C108.133 78.2643 114.83 89.857 114.83 113.043C114.83 124.635 113.214 133.909 110.212 139.938C102.52 137.635 97.6751 130.015 98.8339 122.041C99.9927 114.067 106.804 108.155 114.83 108.155C122.857 108.155 129.668 114.067 130.827 122.041C131.986 130.015 127.141 137.635 119.449 139.938L115.523 122.549Z M143.365 173.833C167.177 173.833 184.564 160.9 195.147 134.272L178.138 127.424C174.358 137.695 169.067 145.303 163.019 150.249C167.024 137.407 179.024 128.811 192.391 129.209C205.759 129.607 217.233 138.901 220.477 151.959C223.72 165.016 217.942 178.652 206.333 185.334C194.724 192.016 180.117 190.115 170.579 180.681C170.579 161.28 173.224 146.445 179.272 137.315C185.141 128.01 195.551 122.626 206.486 123.24C214.045 123.24 220.093 125.903 225.384 130.468C231.349 135.475 235.801 142.064 238.235 149.488L256 142.641C246.929 118.675 230.298 106.502 206.108 106.502C168.311 106.502 149.034 131.229 149.034 181.061C149.034 205.407 153.948 224.046 164.153 236.98C173.98 249.914 188.721 256 207.242 256L143.365 173.833Z" />
</svg>
